<svg xmlns="http://www.w3.org/2000/svg" xmlns:xlink="http://www.w3.org/1999/xlink" version="1.1" x="0px" y="0px" width="100px" height="100px" viewBox="0 0 100 100" enable-background="new 0 0 100 100" xml:space="preserve">
<g id="Captions">
</g>
<g id="Your_Icon">
	<path d="M51.509,75.922c-1.761,0-3.328-1.252-3.664-3.046l-2.977-15.902c-0.277-1.48,0.363-2.982,1.623-3.809l14.798-9.692   c1.727-1.13,4.037-0.646,5.167,1.077c1.129,1.724,0.646,4.038-1.077,5.167l-12.718,8.33l2.52,13.457   c0.379,2.025-0.955,3.976-2.981,4.354C51.968,75.901,51.736,75.922,51.509,75.922z"/>
	<path d="M42.671,38.956c-1.335,0-2.62-0.743-3.248-2.022c-0.88-1.792-0.141-3.958,1.651-4.838l18.127-8.903   c1.792-0.881,3.958-0.141,4.839,1.651c0.88,1.792,0.141,3.958-1.651,4.838l-18.127,8.903C43.75,38.836,43.206,38.956,42.671,38.956   z"/>
	
		<path fill-rule="evenodd" clip-rule="evenodd" fill="none" stroke="#000000" stroke-width="10.2591" stroke-linecap="round" stroke-linejoin="round" stroke-miterlimit="10" d="   M62.523,45.253"/>
	
		<path fill-rule="evenodd" clip-rule="evenodd" fill="none" stroke="#000000" stroke-width="10.2591" stroke-linecap="round" stroke-linejoin="round" stroke-miterlimit="10" d="   M60.854,29.114"/>
	<circle fill-rule="evenodd" clip-rule="evenodd" cx="57.486" cy="15.865" r="5.864"/>
	<path d="M22.155,90.746c-9.686,0-17.565-7.879-17.565-17.564s7.879-17.564,17.565-17.564S39.72,63.496,39.72,73.182   S31.84,90.746,22.155,90.746z M22.155,58.438c-8.13,0-14.744,6.614-14.744,14.744s6.614,14.744,14.744,14.744   s14.744-6.614,14.744-14.744S30.285,58.438,22.155,58.438z"/>
	<path fill="#000000" d="M22.158,88.395h-0.003c-8.389,0-15.214-6.824-15.214-15.213s6.825-15.213,15.214-15.213   c8.388,0,15.213,6.824,15.213,15.213S30.545,88.395,22.158,88.395z M22.155,58.719c-7.976,0-14.464,6.488-14.464,14.463   s6.489,14.463,14.464,14.463h0.003c7.973,0,14.459-6.488,14.459-14.463S30.13,58.719,22.155,58.719z"/>
	<path d="M76.467,90.418c-9.685,0-17.563-7.879-17.563-17.564s7.879-17.564,17.563-17.564c9.686,0,17.564,7.879,17.564,17.564   S86.152,90.418,76.467,90.418z M76.467,58.109c-8.129,0-14.743,6.614-14.743,14.744s6.614,14.744,14.743,14.744   c8.13,0,14.744-6.614,14.744-14.744S84.597,58.109,76.467,58.109z"/>
	<path fill="#000000" d="M76.467,88.16c-8.389,0-15.213-6.823-15.213-15.211c0-8.39,6.824-15.215,15.213-15.215   s15.214,6.825,15.214,15.215C91.681,81.337,84.855,88.16,76.467,88.16z M76.467,58.484c-7.975,0-14.463,6.489-14.463,14.465   c0,7.974,6.488,14.461,14.463,14.461c7.976,0,14.464-6.487,14.464-14.461C90.931,64.974,84.442,58.484,76.467,58.484z"/>
	<path d="M51.335,75.363c-0.467,0-0.89-0.279-1.073-0.709c-0.086-0.203-8.73-20.271-18.659-19.582   c-0.643,0.034-1.198-0.444-1.24-1.087c-0.042-0.644,0.444-1.198,1.087-1.241c10.529-0.694,18.9,16.45,20.639,20.276l22.721-0.318   C64.769,46.907,32.899,50.929,32.572,50.974c-0.642,0.09-1.226-0.36-1.313-0.998c-0.087-0.638,0.359-1.226,0.998-1.313   c0.353-0.05,35.345-4.465,45.313,24.806c0.121,0.354,0.064,0.743-0.15,1.048c-0.215,0.306-0.563,0.489-0.937,0.494l-25.132,0.352   C51.346,75.363,51.34,75.363,51.335,75.363z"/>
	
		<path fill-rule="evenodd" clip-rule="evenodd" fill="none" stroke="#000000" stroke-width="2.1159" stroke-linecap="round" stroke-linejoin="round" stroke-miterlimit="10" d="   M51.335,75.432"/>
	<path d="M51.97,74.904c-0.119,0-0.24-0.021-0.358-0.063c-0.55-0.198-0.835-0.804-0.637-1.354l6.682-18.543   c0.198-0.55,0.807-0.835,1.354-0.637c0.55,0.198,0.835,0.804,0.637,1.354l-6.682,18.543C52.81,74.636,52.403,74.904,51.97,74.904z"/>
	<path d="M63.017,50.539c-0.294,0-0.593-0.028-0.892-0.087c-2.495-0.489-4.121-2.907-3.635-5.4   c0.658-3.414,1.197-11.522-1.339-14.801c-1.556-2.013-1.186-4.906,0.827-6.462c2.01-1.555,4.904-1.187,6.462,0.826   c5.774,7.469,3.383,20.718,3.092,22.205C67.101,49.016,65.174,50.539,63.017,50.539z"/>
	<path d="M22.154,74.904c-0.15,0-0.302-0.032-0.447-0.1c-0.529-0.248-0.758-0.877-0.511-1.406l9.505-20.354l1.256-6.386   c-1.2-0.94-3.675-3.233-3.03-5.729c0.674-2.607,4.45-4.177,11.543-4.799c0.582-0.059,1.095,0.379,1.146,0.961   s-0.379,1.095-0.961,1.146c-8.166,0.717-9.489,2.491-9.679,3.221c-0.335,1.29,1.702,3.164,2.742,3.87   c0.351,0.238,0.527,0.664,0.445,1.08l-1.41,7.171c-0.017,0.084-0.043,0.166-0.08,0.243l-9.56,20.471   C22.934,74.678,22.552,74.904,22.154,74.904z"/>
</g>
</svg>